<svg width="205" height="29" viewBox="0 0 205 29" fill="none" xmlns="http://www.w3.org/2000/svg">
<path d="M49.6565 7.64966C56.4617 7.64966 60.9872 11.9029 60.4428 18.6742H44.3824C44.7907 21.09 46.8323 22.6212 49.6905 22.6212C52.5487 22.6212 53.9438 21.6004 54.6584 19.8991H60.5109C59.4901 24.2885 55.3389 27.2147 49.6565 27.2147C43.9741 27.2147 38.666 23.2677 38.666 17.4492C38.666 11.6307 43.1575 7.68368 49.6225 7.68368L49.6565 7.64966ZM54.4882 15.1354C54.1139 13.298 52.2765 12.1411 49.7246 12.1411C47.1726 12.1411 44.8928 13.298 44.5185 15.1354H54.4882Z" fill="#292929"/>
<path d="M59.6258 8.19385H65.7846L71.0927 22.1446H71.6031L76.9111 8.19385H83.0699L74.8355 26.6361H67.8261L59.5918 8.19385H59.6258Z" fill="#292929"/>
<path d="M93.1423 7.64966C99.9476 7.64966 104.473 11.9029 103.929 18.6742H87.8683C88.2766 21.09 90.3181 22.6212 93.1763 22.6212C96.0346 22.6212 97.4296 21.6004 98.1442 19.8991H103.997C102.976 24.2885 98.8247 27.2147 93.1423 27.2147C87.4599 27.2147 82.1519 23.2677 82.1519 17.4492C82.1519 11.6307 86.6433 7.68368 93.1083 7.68368L93.1423 7.64966ZM97.9741 15.1354C97.5998 13.298 95.7624 12.1411 93.2104 12.1411C90.6584 12.1411 88.3787 13.298 88.0044 15.1354H97.9741Z" fill="#292929"/>
<path d="M104.847 26.6705V8.22829H109.951L110.325 10.5421H110.699C111.958 8.94285 113.762 7.75195 116.552 7.75195C121.349 7.75195 124.072 11.0525 124.072 15.5439V17.1092H118.525V16.2585C118.525 13.7746 117.3 12.4816 114.85 12.4816C112.4 12.4816 110.393 14.5231 110.393 17.2452V26.7046H104.847V26.6705Z" fill="#292929"/>
<path d="M125.263 12.9919V8.56844H128.801V4.99571L134.348 3.77075V8.56844H138.805V12.9919H134.348V20.954C134.348 21.7706 134.62 21.9748 135.403 21.9748H139.009V26.6364H134.11C130.231 26.6364 128.801 25.3774 128.801 21.7706V12.9919H125.263Z" fill="#292929"/>
<path d="M150.136 7.64966C156.941 7.64966 161.467 11.9029 160.922 18.6742H144.862C145.27 21.09 147.312 22.6212 150.17 22.6212C153.028 22.6212 154.423 21.6004 155.138 19.8991H160.99C159.97 24.2885 155.818 27.2147 150.136 27.2147C144.454 27.2147 139.146 23.2677 139.146 17.4492C139.146 11.6307 143.637 7.68368 150.102 7.68368L150.136 7.64966ZM154.968 15.1354C154.593 13.298 152.756 12.1411 150.204 12.1411C147.652 12.1411 145.372 13.298 144.998 15.1354H154.968Z" fill="#292929"/>
<path d="M172.661 7.64966C178.684 7.64966 183.107 11.1884 183.55 16.2923H177.867C177.493 13.7744 175.622 12.3112 172.661 12.3112C169.701 12.3112 167.319 14.1827 167.319 17.4492C167.319 20.7158 169.225 22.5872 172.661 22.5872C176.098 22.5872 177.697 21.022 177.969 18.47H183.652C183.277 23.676 178.82 27.2488 172.661 27.2488C166.502 27.2488 161.637 23.2677 161.637 17.4833C161.637 11.6988 166.162 7.71769 172.661 7.71769V7.64966Z" fill="#292929"/>
<path d="M183.788 26.6704V1.93335H189.334V10.542H189.709C190.968 8.90873 193.145 7.64975 196.072 7.64975C201.244 7.64975 204.544 10.542 204.544 16.5987V26.6704H198.998V17.4153C198.998 13.9786 198.011 12.3794 194.574 12.3794C191.138 12.3794 189.334 14.1148 189.334 17.4493V26.6704H183.788Z" fill="#292929"/>
<path d="M28.9992 29V20.0971L10.7622 15.4165C12.1431 17.4348 13.5055 19.5089 14.8245 21.5148C16.447 23.9851 18.1251 26.5421 19.8467 29H28.993H28.9992Z" fill="#292929"/>
<path d="M0 29H8.91106V15.3298L0 19.9051V29Z" fill="#292929"/>
<path d="M28.9996 0H19.8533C18.045 2.60031 16.2802 5.2811 14.571 7.88141C13.5059 9.50351 12.4036 11.1813 11.3014 12.822C11.1156 13.1006 10.9112 13.3978 10.7007 13.7012L28.9996 9.04536V0.0061897V0Z" fill="#292929"/>
</svg>
