<svg width="170" height="24" viewBox="0 0 170 24" fill="none" xmlns="http://www.w3.org/2000/svg">
<path d="M41.0957 6.33081C46.7277 6.33081 50.473 9.85082 50.0224 15.4547H36.7309C37.0688 17.454 38.7584 18.7212 41.1238 18.7212C43.4893 18.7212 44.6439 17.8764 45.2352 16.4684H50.0787C49.2339 20.1011 45.7984 22.5228 41.0957 22.5228C36.393 22.5228 32 19.2563 32 14.4409C32 9.62554 35.7171 6.35896 41.0675 6.35896L41.0957 6.33081ZM45.0944 12.526C44.7846 11.0054 43.264 10.0479 41.152 10.0479C39.04 10.0479 37.1533 11.0054 36.8435 12.526H45.0944Z" fill="#A1C7FF"/>
<path d="M49.3465 6.78125H54.4435L58.8364 18.3268H59.2588L63.6518 6.78125H68.7488L61.934 22.044H56.1331L49.3184 6.78125H49.3465Z" fill="#A1C7FF"/>
<path d="M77.0844 6.33081C82.7164 6.33081 86.4617 9.85082 86.0112 15.4547H72.7196C73.0576 17.454 74.7472 18.7212 77.1126 18.7212C79.478 18.7212 80.6326 17.8764 81.224 16.4684H86.0675C85.2227 20.1011 81.7872 22.5228 77.0844 22.5228C72.3817 22.5228 67.9888 19.2563 67.9888 14.4409C67.9888 9.62554 71.7059 6.35896 77.0563 6.35896L77.0844 6.33081ZM81.0832 12.526C80.7734 11.0054 79.2528 10.0479 77.1408 10.0479C75.0288 10.0479 73.1421 11.0054 72.8323 12.526H81.0832Z" fill="#A1C7FF"/>
<path d="M86.771 22.0722V6.8095H90.995L91.3047 8.72439H91.6145C92.6564 7.40087 94.1489 6.41528 96.458 6.41528C100.429 6.41528 102.681 9.14678 102.681 12.8639V14.1593H98.0913V13.4553C98.0913 11.3996 97.0775 10.3295 95.05 10.3295C93.0225 10.3295 91.3611 12.0191 91.3611 14.2719V22.1004H86.771V22.0722Z" fill="#A1C7FF"/>
<path d="M103.667 10.752V7.09116H106.596V4.13438L111.186 3.12061V7.09116H114.875V10.752H111.186V17.3414C111.186 18.0172 111.411 18.1862 112.059 18.1862H115.044V22.0441H110.989C107.778 22.0441 106.596 21.0022 106.596 18.0173V10.752H103.667Z" fill="#A1C7FF"/>
<path d="M124.252 6.33081C129.884 6.33081 133.63 9.85082 133.179 15.4547H119.888C120.226 17.454 121.915 18.7212 124.281 18.7212C126.646 18.7212 127.801 17.8764 128.392 16.4684H133.235C132.391 20.1011 128.955 22.5228 124.252 22.5228C119.55 22.5228 115.157 19.2563 115.157 14.4409C115.157 9.62554 118.874 6.35896 124.224 6.35896L124.252 6.33081ZM128.251 12.526C127.941 11.0054 126.421 10.0479 124.309 10.0479C122.197 10.0479 120.31 11.0054 120 12.526H128.251Z" fill="#A1C7FF"/>
<path d="M142.894 6.33081C147.879 6.33081 151.539 9.25946 151.906 13.4835H147.203C146.893 11.3996 145.344 10.1887 142.894 10.1887C140.444 10.1887 138.473 11.7375 138.473 14.4409C138.473 17.1443 140.05 18.6931 142.894 18.6931C145.739 18.6931 147.062 17.3977 147.287 15.2857H151.99C151.68 19.5942 147.991 22.551 142.894 22.551C137.797 22.551 133.771 19.2563 133.771 14.4691C133.771 9.68186 137.516 6.38712 142.894 6.38712V6.33081Z" fill="#A1C7FF"/>
<path d="M152.103 22.0724V1.6001H156.693V8.72457H157.002C158.044 7.37289 159.847 6.33097 162.268 6.33097C166.549 6.33097 169.28 8.72459 169.28 13.7371V22.0724H164.69V14.4129C164.69 11.5687 163.873 10.2452 161.029 10.2452C158.185 10.2452 156.693 11.6814 156.693 14.4411V22.0724H152.103Z" fill="#A1C7FF"/>
<path d="M24.0001 24.0002V16.6322L8.90723 12.7585C10.0501 14.4289 11.1776 16.1454 12.2692 17.8055C13.6119 19.8499 15.0008 21.9661 16.4255 24.0002H23.995H24.0001Z" fill="#A1C7FF"/>
<path d="M0 24.0002H7.37476V12.6868L0 16.4733V24.0002Z" fill="#A1C7FF"/>
<path d="M24.0001 0H16.4306C14.9341 2.15201 13.4735 4.37062 12.059 6.52263C11.1775 7.86507 10.2653 9.25363 9.35307 10.6114C9.19933 10.842 9.0302 11.088 8.85596 11.339L24.0001 7.48591V0.00512258V0Z" fill="#A1C7FF"/>
</svg>
