<svg width="151" height="22" viewBox="0 0 151 22" fill="none" xmlns="http://www.w3.org/2000/svg">
<path d="M36.6584 5.64673C41.6822 5.64673 45.0231 8.78662 44.6212 13.7853H32.7649C33.0664 15.5688 34.5735 16.6991 36.6835 16.6991C38.7935 16.6991 39.8234 15.9456 40.3509 14.6896H44.6714C43.9178 17.93 40.8533 20.0902 36.6584 20.0902C32.4635 20.0902 28.5449 17.1764 28.5449 12.881C28.5449 8.58568 31.8606 5.67184 36.6333 5.67184L36.6584 5.64673ZM40.2253 11.1729C39.949 9.8165 38.5926 8.96244 36.7086 8.96244C34.8247 8.96244 33.1417 9.8165 32.8654 11.1729H40.2253Z" fill="#292929"/>
<path d="M44.0193 6.04834H48.5658L52.4844 16.3472H52.8612L56.7798 6.04834H61.3263L55.2475 19.6629H50.073L43.9941 6.04834H44.0193Z" fill="#292929"/>
<path d="M68.76 5.64673C73.7838 5.64673 77.1246 8.78662 76.7227 13.7853H64.8665C65.1679 15.5688 66.6751 16.6991 68.7851 16.6991C70.8951 16.6991 71.925 15.9456 72.4525 14.6896H76.773C76.0194 17.93 72.9548 20.0902 68.76 20.0902C64.5651 20.0902 60.6465 17.1764 60.6465 12.881C60.6465 8.58568 63.9622 5.67184 68.7348 5.67184L68.76 5.64673ZM72.3269 11.1729C72.0506 9.8165 70.6941 8.96244 68.8102 8.96244C66.9263 8.96244 65.2433 9.8165 64.967 11.1729H72.3269Z" fill="#292929"/>
<path d="M77.4023 19.6884V6.07381H81.1702L81.4465 7.78192H81.7228C82.6522 6.60132 83.9835 5.72217 86.0433 5.72217C89.5851 5.72217 91.5946 8.1587 91.5946 11.4744V12.6299H87.5002V12.0019C87.5002 10.1683 86.5959 9.2137 84.7874 9.2137C82.9788 9.2137 81.4968 10.7208 81.4968 12.7304V19.7135H77.4023V19.6884Z" fill="#292929"/>
<path d="M92.4727 9.59048V6.32499H95.085V3.6875L99.1794 2.7832V6.32499H102.47V9.59048H99.1794V15.4684C99.1794 16.0712 99.3804 16.2219 99.9581 16.2219H102.621V19.6633H99.0036C96.14 19.6633 95.085 18.7338 95.085 16.0712V9.59048H92.4727Z" fill="#292929"/>
<path d="M110.836 5.64673C115.86 5.64673 119.201 8.78662 118.799 13.7853H106.943C107.244 15.5688 108.751 16.6991 110.861 16.6991C112.971 16.6991 114.001 15.9456 114.529 14.6896H118.849C118.096 17.93 115.031 20.0902 110.836 20.0902C106.641 20.0902 102.723 17.1764 102.723 12.881C102.723 8.58568 106.038 5.67184 110.811 5.67184L110.836 5.64673ZM114.403 11.1729C114.127 9.8165 112.77 8.96244 110.886 8.96244C109.002 8.96244 107.319 9.8165 107.043 11.1729H114.403Z" fill="#292929"/>
<path d="M127.465 5.64673C131.911 5.64673 135.176 8.25912 135.503 12.027H131.308C131.032 10.1682 129.65 9.08803 127.465 9.08803C125.279 9.08803 123.521 10.4696 123.521 12.881C123.521 15.2925 124.928 16.674 127.465 16.674C130.002 16.674 131.182 15.5186 131.383 13.6346H135.578C135.302 17.4778 132.011 20.1153 127.465 20.1153C122.918 20.1153 119.326 17.1764 119.326 12.9062C119.326 8.63591 122.667 5.69695 127.465 5.69695V5.64673Z" fill="#292929"/>
<path d="M135.678 19.6884V1.42676H139.772V7.78189H140.048C140.978 6.57617 142.585 5.64677 144.746 5.64677C148.564 5.64677 151 7.7819 151 12.2531V19.6884H146.906V12.8559C146.906 10.3189 146.178 9.13833 143.64 9.13833C141.103 9.13833 139.772 10.4194 139.772 12.8811V19.6884H135.678Z" fill="#292929"/>
<path d="M21.4084 21.4086V14.8362L7.94531 11.3809C8.96476 12.8709 9.97049 14.402 10.9442 15.8828C12.142 17.7065 13.3808 19.5941 14.6517 21.4086H21.4038H21.4084Z" fill="#292929"/>
<path d="M0 21.4084H6.57839V11.3167L0 14.6943V21.4084Z" fill="#292929"/>
<path d="M21.4092 0H14.6571C13.3222 1.91962 12.0193 3.89866 10.7576 5.81828C9.97128 7.01576 9.15755 8.25437 8.34383 9.46556C8.20668 9.67123 8.05582 9.89062 7.90039 10.1146L21.4092 6.67754V0.00456941V0Z" fill="#292929"/>
</svg>
